<?xml version="1.0" encoding="utf-8"?>
<!-- Generator: Adobe Illustrator 15.1.0, SVG Export Plug-In . SVG Version: 6.00 Build 0)  -->
<!DOCTYPE svg PUBLIC "-//W3C//DTD SVG 1.1//EN" "http://www.w3.org/Graphics/SVG/1.1/DTD/svg11.dtd">
<svg version="1.1" id="Слой_1" xmlns="http://www.w3.org/2000/svg" xmlns:xlink="http://www.w3.org/1999/xlink" x="0px" y="0px"
	 width="38.438px" height="38.438px" viewBox="-38.619 -0.399 38.438 38.438" enable-background="new -38.619 -0.399 38.438 38.438"
	 xml:space="preserve">
<g>
	<path d="M-19.399,38.039c-10.598,0-19.219-8.622-19.219-19.22c0-10.597,8.622-19.218,19.219-19.218S-0.18,8.222-0.18,18.819
		C-0.18,29.417-8.802,38.039-19.399,38.039z M-19.399,1.088c-9.777,0-17.732,7.954-17.732,17.731
		c0,9.777,7.955,17.732,17.732,17.732s17.732-7.955,17.732-17.732C-1.667,9.042-9.622,1.088-19.399,1.088z"/>
</g>
<path d="M-14.407,11.8h-1.997c-0.854,0-1.301,0.229-1.342,0.687l-0.063,0.718v1.591h3.275l-0.593,3.962h-2.683v10.671h-4.587V18.883
	h-1.997V14.92h1.997v-2.09c0-2.559,0.801-3.963,2.402-4.212l2.435-0.406h3.151V11.8L-14.407,11.8z"/>
</svg>
