<?xml version="1.0" encoding="utf-8"?>
<!-- Generator: Adobe Illustrator 15.1.0, SVG Export Plug-In . SVG Version: 6.00 Build 0)  -->
<!DOCTYPE svg PUBLIC "-//W3C//DTD SVG 1.1//EN" "http://www.w3.org/Graphics/SVG/1.1/DTD/svg11.dtd">
<svg version="1.1" id="Слой_1" xmlns="http://www.w3.org/2000/svg" xmlns:xlink="http://www.w3.org/1999/xlink" x="0px" y="0px"
	 width="38.438px" height="38.438px" viewBox="-37.083 -0.831 38.438 38.438" enable-background="new -37.083 -0.831 38.438 38.438"
	 xml:space="preserve">
<g>
	<path d="M-17.864,37.607c-10.598,0-19.219-8.622-19.219-19.22c0-10.597,8.622-19.218,19.219-19.218S1.355,7.791,1.355,18.388
		C1.355,28.985-7.267,37.607-17.864,37.607z M-17.864,0.657c-9.777,0-17.732,7.954-17.732,17.731
		c0,9.777,7.955,17.732,17.732,17.732s17.732-7.955,17.732-17.732C-0.132,8.611-8.087,0.657-17.864,0.657z"/>
</g>
<path d="M-25.344,7.456c0.687,0,1.261,0.232,1.726,0.697c0.465,0.484,0.697,1.06,0.697,1.726c0,0.687-0.232,1.262-0.697,1.726
	c-0.465,0.464-1.039,0.696-1.726,0.696c-0.686,0-1.262-0.232-1.727-0.696c-0.464-0.464-0.696-1.04-0.696-1.726
	c0-0.666,0.232-1.231,0.696-1.695C-26.605,7.698-26.029,7.456-25.344,7.456z M-27.372,14.058h4.147V27.32h-4.147V14.058
	L-27.372,14.058z M-13.05,13.785c2.16,0,3.553,0.596,4.179,1.786c0.626,1.191,0.929,2.686,0.908,4.482v7.206h-4.118v-6.269
	c0-0.767-0.121-1.563-0.363-2.392c-0.241-0.848-0.918-1.271-2.028-1.271c-1.132,0-1.867,0.333-2.211,0.999
	c-0.364,0.667-0.546,1.434-0.546,2.301v6.571h-4.088V14.058h4.088v1.847h0.092c0.303-0.524,0.798-1.009,1.483-1.453
	C-14.947,14.007-14.08,13.785-13.05,13.785L-13.05,13.785z"/>
</svg>
