<?xml version="1.0" encoding="utf-8"?>
<!-- Generator: Adobe Illustrator 15.1.0, SVG Export Plug-In . SVG Version: 6.00 Build 0)  -->
<!DOCTYPE svg PUBLIC "-//W3C//DTD SVG 1.1//EN" "http://www.w3.org/Graphics/SVG/1.1/DTD/svg11.dtd">
<svg version="1.1" id="Слой_1" xmlns="http://www.w3.org/2000/svg" xmlns:xlink="http://www.w3.org/1999/xlink" x="0px" y="0px"
	 width="38.438px" height="38.438px" viewBox="-38.077 -0.031 38.438 38.438" enable-background="new -38.077 -0.031 38.438 38.438"
	 xml:space="preserve">
<g>
	<path fill="#a5a5a5" d="M-21.322,29.006c0-0.819,0.216-1.442,0.648-1.868c0.432-0.425,1.048-0.638,1.843-0.638
		c0.787,0,1.389,0.221,1.809,0.664c0.42,0.44,0.63,1.055,0.63,1.842c0,0.785-0.212,1.407-0.638,1.867
		c-0.427,0.459-1.027,0.687-1.801,0.687c-0.785,0-1.395-0.219-1.832-0.663C-21.104,30.456-21.322,29.824-21.322,29.006z
		 M-17.37,23.712h-2.891l-0.861-16.895h4.598L-17.37,23.712z"/>
</g>
<g>
	<path fill="#a5a5a5" d="M-18.858,38.407c-10.598,0-19.219-8.622-19.219-19.22c0-10.597,8.622-19.218,19.219-19.218
		S0.361,8.59,0.361,19.188C0.361,29.785-8.26,38.407-18.858,38.407z M-18.858,1.457c-9.777,0-17.732,7.954-17.732,17.731
		c0,9.777,7.955,17.732,17.732,17.732s17.732-7.955,17.732-17.732C-1.126,9.411-9.081,1.457-18.858,1.457z"/>
</g>
</svg>
