<?xml version="1.0" encoding="utf-8"?>
<!-- Generator: Adobe Illustrator 15.1.0, SVG Export Plug-In . SVG Version: 6.00 Build 0)  -->
<!DOCTYPE svg PUBLIC "-//W3C//DTD SVG 1.1//EN" "http://www.w3.org/Graphics/SVG/1.1/DTD/svg11.dtd">
<svg version="1.1" id="Слой_1" xmlns="http://www.w3.org/2000/svg" xmlns:xlink="http://www.w3.org/1999/xlink" x="0px" y="0px"
	 width="38.438px" height="38.438px" viewBox="-38.355 -0.852 38.438 38.438" enable-background="new -38.355 -0.852 38.438 38.438"
	 xml:space="preserve">
<g>
	<path d="M-19.136,37.586c-10.598,0-19.219-8.622-19.219-19.22c0-10.597,8.622-19.218,19.219-19.218S0.083,7.77,0.083,18.366
		C0.083,28.964-8.539,37.586-19.136,37.586z M-19.136,0.636c-9.777,0-17.732,7.954-17.732,17.73c0,9.777,7.955,17.732,17.732,17.732
		s17.732-7.955,17.732-17.732C-1.404,8.59-9.359,0.636-19.136,0.636z"/>
</g>
<path d="M-29.929,21.698l0.713,0.509l1.857,0.892c1.239,0.577,2.071,0.636,2.495,0.179c0.425-0.459,1.307-0.984,2.647-1.579
	l-0.331-0.025l-0.662-0.28c-0.152-0.136-0.263-0.306-0.331-0.509l-0.127-0.332l0.458-0.33l0.153-0.713l-1.171-0.203l-1.323-1.248
	l1.399-0.891l-0.331,0.076l-0.712-0.076l-0.663-0.637l-0.483-1.4l1.146-0.102l-0.943-0.865l-0.509-1.629l0.917,0.051l6.007,3.436
	l0.229-0.687l0.637-1.527c0.441-1.035,0.789-1.612,1.045-1.731c0.271-0.102,0.746-0.492,1.425-1.171l0.153,0.102l0.178,0.204
	l0.203-0.306l0.509-0.407l0.204,0.229l-0.051,0.381l0.458-0.229l0.764-0.025l-0.152,0.305L-15.191,12l1.68,0.585l2.545,3.742
	l0.84,0.128l1.783-0.434l-0.204,0.408l-1.681,1.044l0.28,0.128l1.604-0.025l-0.331,0.585l-2.292,0.61l-0.407,0.992l-1.349,2.292
	c-0.882,1.527-1.663,2.351-2.342,2.469c-0.679,0.102-1.832,0.603-3.462,1.502c-1.595,0.254-3.063,0.279-4.403,0.076
	c-1.357-0.221-2.528-0.568-3.514-1.043c-1.001-0.476-1.798-1.019-2.392-1.629C-29.446,22.802-29.81,22.224-29.929,21.698
	L-29.929,21.698z"/>
</svg>
